# xmcd
#
# Track frame offsets: 
#        150
#        20327
#        35089
#        58144
#        75744
#        99104
#        115681
#        164151
#        188309
#        210791
#        226066
#        250772
#        273977
#        298419
#
# Disc length: 4264 seconds
#
# Revision: 0
# Processed by: cddbd v1.5.2PL0 Copyright (c) Steve Scherf et al.
# Submitted via: ExactAudioCopy v0.95b4
#
DISCID=b410a60e
DTITLE=Various Artist - Don´s Black Vol 10
DYEAR=1900
DGENRE=
TTITLE0=Lutricia Mc Neal - Ain´t that just the way
TTITLE1=AMG - Bitch better have my money
TTITLE2=Nana - Darkman (rmx)
TTITLE3=Ghetto People - In the ghetto
TTITLE4=Kris Kros - Jump
TTITLE5=Hip Hop Alliance - Nothing like VIVA
TTITLE6=The blue boy - Remember me
TTITLE7=R´n´G - Rhythm of my heart
TTITLE8=G´s incorporated - Stairway to heaven
TTITLE9=Tic Tac Toe - Warum
TTITLE10=Rapsody - You don´t understand
TTITLE11=Lutricia McNeal - Stranded
TTITLE12=Rappers against Racism - Key to your heart
TTITLE13=Sasha - I´m still waiting
EXTD=
EXTT0=
EXTT1=
EXTT2=
EXTT3=
EXTT4=
EXTT5=
EXTT6=
EXTT7=
EXTT8=
EXTT9=
EXTT10=
EXTT11=
EXTT12=
EXTT13=
PLAYORDER=
